<mxfile host="65bd71144e">
    <diagram id="W8FmpBWq-Kh1zMqeMgEl" name="Page-1">
        <mxGraphModel dx="1417" dy="1607" grid="1" gridSize="10" guides="1" tooltips="1" connect="1" arrows="1" fold="1" page="1" pageScale="1" pageWidth="850" pageHeight="1100" math="0" shadow="0">
            <root>
                <mxCell id="0"/>
                <mxCell id="1" parent="0"/>
                <mxCell id="2" value="Game" style="swimlane;whiteSpace=wrap;html=1;" parent="1" vertex="1">
                    <mxGeometry x="-840" y="-1080" width="200" height="200" as="geometry"/>
                </mxCell>
                <mxCell id="6" value="Will handle switching players&lt;br&gt;player movement&lt;br&gt;checking for legal moves&lt;br&gt;checking if game is over&lt;br&gt;checking for winner" style="text;html=1;strokeColor=none;fillColor=none;align=center;verticalAlign=middle;whiteSpace=wrap;rounded=0;" parent="2" vertex="1">
                    <mxGeometry x="10" y="40" width="80" height="140" as="geometry"/>
                </mxCell>
                <mxCell id="17" value="Will communicat with the Game and User Input classes" style="text;html=1;strokeColor=none;fillColor=none;align=center;verticalAlign=middle;whiteSpace=wrap;rounded=0;" vertex="1" parent="2">
                    <mxGeometry x="130" y="40" width="60" height="140" as="geometry"/>
                </mxCell>
                <mxCell id="3" value="User Input" style="swimlane;whiteSpace=wrap;html=1;" parent="1" vertex="1">
                    <mxGeometry x="-600" y="-1080" width="200" height="200" as="geometry"/>
                </mxCell>
                <mxCell id="12" value="Will handle getting input from the user and passing that data to the Game" style="text;html=1;strokeColor=none;fillColor=none;align=center;verticalAlign=middle;whiteSpace=wrap;rounded=0;" vertex="1" parent="3">
                    <mxGeometry x="10" y="40" width="80" height="150" as="geometry"/>
                </mxCell>
                <mxCell id="18" value="Will communicate with the Game class" style="text;html=1;strokeColor=none;fillColor=none;align=center;verticalAlign=middle;whiteSpace=wrap;rounded=0;" vertex="1" parent="3">
                    <mxGeometry x="130" y="40" width="60" height="140" as="geometry"/>
                </mxCell>
                <mxCell id="4" value="Board" style="swimlane;whiteSpace=wrap;html=1;" parent="1" vertex="1">
                    <mxGeometry x="-840" y="-860" width="200" height="200" as="geometry"/>
                </mxCell>
                <mxCell id="10" value="Contains the board&lt;br&gt;the string representation of the board&lt;br&gt;turning our Enum to a string&lt;br&gt;printing the board" style="text;html=1;strokeColor=none;fillColor=none;align=center;verticalAlign=middle;whiteSpace=wrap;rounded=0;" parent="4" vertex="1">
                    <mxGeometry x="10" y="30" width="100" height="150" as="geometry"/>
                </mxCell>
                <mxCell id="16" value="Will communicate with the Game class" style="text;html=1;strokeColor=none;fillColor=none;align=center;verticalAlign=middle;whiteSpace=wrap;rounded=0;" vertex="1" parent="4">
                    <mxGeometry x="130" y="30" width="60" height="150" as="geometry"/>
                </mxCell>
                <mxCell id="5" value="Leaderboard" style="swimlane;whiteSpace=wrap;html=1;" parent="1" vertex="1">
                    <mxGeometry x="-600" y="-860" width="200" height="200" as="geometry"/>
                </mxCell>
                <mxCell id="15" value="Will handle saving players top scores and displaying them through the menu" style="text;html=1;strokeColor=none;fillColor=none;align=center;verticalAlign=middle;whiteSpace=wrap;rounded=0;" vertex="1" parent="5">
                    <mxGeometry x="10" y="30" width="180" height="160" as="geometry"/>
                </mxCell>
                <mxCell id="13" value="Computer AI" style="swimlane;whiteSpace=wrap;html=1;" vertex="1" parent="1">
                    <mxGeometry x="-370" y="-1080" width="200" height="200" as="geometry"/>
                </mxCell>
                <mxCell id="14" value="Will handle the Computers moves based on Random and passing those movements to the Game" style="text;html=1;strokeColor=none;fillColor=none;align=center;verticalAlign=middle;whiteSpace=wrap;rounded=0;" vertex="1" parent="13">
                    <mxGeometry x="10" y="30" width="70" height="160" as="geometry"/>
                </mxCell>
                <mxCell id="19" value="Will communicate with the Game class" style="text;html=1;strokeColor=none;fillColor=none;align=center;verticalAlign=middle;whiteSpace=wrap;rounded=0;" vertex="1" parent="13">
                    <mxGeometry x="130" y="40" width="60" height="140" as="geometry"/>
                </mxCell>
            </root>
        </mxGraphModel>
    </diagram>
</mxfile>